<svg width="184" height="172" viewBox="0 0 184 172" fill="none" xmlns="http://www.w3.org/2000/svg">
<path d="M168.684 67.2114C168.684 70.4207 168.052 73.5985 166.824 76.5634C165.596 79.5284 163.796 82.2224 161.527 84.4917C159.258 86.7609 156.564 88.561 153.599 89.789C150.634 91.017 147.456 91.6489 144.247 91.6486H34.2793C28.8997 91.6484 23.6706 89.8731 19.4028 86.5982C15.135 83.3232 12.067 78.7315 10.6748 73.5353C9.28248 68.339 9.64366 62.8286 11.7023 57.8585C13.7609 52.8884 17.4019 48.7365 22.0607 46.0466C23.9903 44.9274 26.0655 44.0806 28.2273 43.5303C28.7601 32.9552 32.9386 22.8909 40.0523 15.0481C47.1661 7.20519 56.7762 2.06767 67.2493 0.508719C77.7225 -1.05023 88.4123 1.06559 97.5019 6.49655C106.591 11.9275 113.52 20.3385 117.11 30.2999C119.396 28.6846 122.082 27.7288 124.875 27.537C127.668 27.3451 130.459 27.9246 132.945 29.2122C135.431 30.4997 137.515 32.4457 138.969 34.8376C140.423 37.2294 141.192 39.975 141.192 42.7743C141.192 42.8392 141.188 42.904 141.188 42.9728C144.629 42.531 148.125 42.8283 151.441 43.845C154.758 44.8616 157.82 46.5741 160.423 48.8682C163.025 51.1623 165.108 53.9852 166.533 57.1484C167.957 60.3116 168.691 63.7423 168.684 67.2114Z" fill="#90D2ED" fill-opacity="0.24"/>
<path d="M161.811 73.3207H65.5894C61.7936 73.3207 58.7165 76.3979 58.7165 80.1937V142.814C58.7165 146.61 61.7936 149.687 65.5894 149.687H161.811C165.607 149.687 168.684 146.61 168.684 142.814V80.1937C168.684 76.3979 165.607 73.3207 161.811 73.3207Z" fill="#DA1E77"/>
<path d="M58.7165 137.468H168.684V142.814C168.684 144.637 167.96 146.385 166.671 147.674C165.382 148.963 163.634 149.687 161.811 149.687H65.5894C63.7666 149.687 62.0184 148.963 60.7295 147.674C59.4406 146.385 58.7165 144.637 58.7165 142.814V137.468Z" fill="#A30851"/>
<path d="M101.482 149.687H125.919V161.184C125.919 163.237 126.49 165.249 127.569 166.995C128.648 168.741 130.192 170.152 132.028 171.069H95.3722C97.208 170.152 98.7519 168.741 99.8309 166.995C100.91 165.249 101.482 163.237 101.482 161.184V149.687Z" fill="#800740"/>
<path d="M59.4979 171.069H105.318C106.938 171.069 108.492 170.426 109.638 169.28C110.783 168.134 111.427 166.58 111.427 164.96C111.427 163.34 110.783 161.786 109.638 160.64C108.492 159.494 106.938 158.851 105.318 158.851H59.4979V171.069Z" fill="#CADAE6"/>
<path d="M59.4981 158.851H12.5256C9.15154 158.851 6.41632 161.586 6.41632 164.96C6.41632 168.334 9.15154 171.069 12.5256 171.069H59.4981C62.8721 171.069 65.6073 168.334 65.6073 164.96C65.6073 161.586 62.8721 158.851 59.4981 158.851Z" fill="#ACB8C2"/>
<path d="M61.8284 158.851H11.5871C10.8886 158.85 10.2113 158.611 9.66799 158.172C9.1247 157.733 8.74819 157.121 8.60117 156.438L0.746885 119.782C0.651346 119.337 0.6566 118.876 0.762262 118.432C0.867925 117.989 1.07132 117.575 1.35757 117.221C1.64382 116.867 2.00567 116.581 2.41664 116.385C2.82762 116.188 3.27732 116.086 3.73283 116.086H53.9742C54.6727 116.086 55.35 116.326 55.8932 116.765C56.4365 117.204 56.813 117.816 56.96 118.499L64.8143 155.155C64.9098 155.6 64.9046 156.061 64.7989 156.504C64.6933 156.947 64.4899 157.361 64.2036 157.716C63.9174 158.07 63.5555 158.356 63.1446 158.552C62.7336 158.749 62.2839 158.851 61.8284 158.851Z" fill="#CADAE6"/>
<path d="M61.8284 158.851H22.8435C22.1443 158.851 21.4662 158.612 20.9222 158.173C20.3782 157.733 20.0011 157.121 19.8537 156.438L11.9995 119.782C11.9043 119.336 11.91 118.875 12.0161 118.432C12.1221 117.989 12.3259 117.575 12.6125 117.221C12.8991 116.866 13.2612 116.581 13.6724 116.384C14.0836 116.188 14.5335 116.086 14.9892 116.086H53.9742C54.6727 116.086 55.35 116.326 55.8932 116.765C56.4365 117.204 56.813 117.816 56.96 118.499L64.8143 155.155C64.9098 155.6 64.9046 156.061 64.7989 156.504C64.6933 156.947 64.4899 157.361 64.2036 157.716C63.9174 158.07 63.5555 158.356 63.1446 158.552C62.7336 158.749 62.2839 158.851 61.8284 158.851Z" fill="#ED90A6"/>
<path d="M177.848 119.14H159.52C156.146 119.14 153.41 121.876 153.41 125.25V164.96C153.41 168.334 156.146 171.069 159.52 171.069H177.848C181.222 171.069 183.957 168.334 183.957 164.96V125.25C183.957 121.876 181.222 119.14 177.848 119.14Z" fill="#FFE7F2"/>
<path d="M168.684 164.96C170.371 164.96 171.738 163.593 171.738 161.905C171.738 160.218 170.371 158.851 168.684 158.851C166.997 158.851 165.629 160.218 165.629 161.905C165.629 163.593 166.997 164.96 168.684 164.96Z" fill="#DA1E78"/>
<path d="M165.629 125.25H171.738V131.359H165.629V125.25Z" fill="#DA1E78"/>
</svg>
