<?xml version="1.0" encoding="utf-8"?>
<!-- Generator: Adobe Illustrator 21.1.0, SVG Export Plug-In . SVG Version: 6.00 Build 0)  -->
<svg version="1.1" id="Layer_1" xmlns="http://www.w3.org/2000/svg" xmlns:xlink="http://www.w3.org/1999/xlink" x="0px" y="0px"
	 viewBox="0 0 848.1 378.7" style="enable-background:new 0 0 848.1 378.7;" xml:space="preserve">
<style type="text/css">
	.st0{fill:#56246B;}
	.st1{fill:#325BA8;}
	.st2{fill:#733F97;}
	.st3{fill:#F3AB49;}
	.st4{fill:#3286C7;}
	.st5{fill:#DA1E78;}
	.st6{fill:#E65B6B;}
	.st7{fill:#3E1B51;}
	.st8{font-family:'OpenSans';}
	.st9{font-size:170.6763px;}
	.st10{letter-spacing:15;}
</style>
<g>
	<polygon class="st0" points="100.3,178.9 132.6,202.8 164.7,178.9 244.5,125.7 260,209.6 270.2,228 189.9,293.3 173.3,342.2 
		151.4,347.4 27.5,252.3 0.4,220 21.9,196.4 	"/>
	<g>
		<path class="st1" d="M27.5,252.3c0.1-0.1,0.2-0.1,0.3-0.1c-0.2-0.1-0.3-0.1-0.5-0.1L27.5,252.3z"/>
		<path class="st1" d="M277.1,221c-6.4,7.2-37,38.2-88.5,38.2c-51.1,0-76.8-50-160.8-7c12.2,3.1,47.5,14.2,74.1,44.9
			c27.9,32.2,62.1,42.7,71.4,45.1L277.1,221z"/>
	</g>
	<path class="st2" d="M183.3,172.3c39.9-28.4,71-37.2,76.7-38.7l-9.7-45.2c-7.6,4.9-31.8,21.8-58.1,56.3
		c-27.4,36.1-57.4,55.1-57.7,55.2C152.6,192.1,168.8,182.5,183.3,172.3z"/>
	<path class="st3" d="M164.7,15.9L142.4,1c-2.1-1.3-4.9-1.3-6.9,0.1h-0.1L40.3,64.5l0,0c-1.4,0.9-2.4,2.4-2.7,4.1l0,0L31.3,98
		C100.5,75.5,148.9,31.6,164.7,15.9L164.7,15.9z"/>
	<path class="st4" d="M134,376.5c0.1,0.1,0.2,0.2,0.3,0.3c2.6,2.6,6.8,2.6,9.4,0c0.1-0.1,0.1-0.2,0.2-0.2l29.5-34.4
		c-9.4-2.4-43.5-12.9-71.4-45.1c-27.1-31.1-63-42-74.7-44.9L134,376.5L134,376.5z"/>
	<path class="st5" d="M57.2,112.6l0.1-0.3c-6,2-22.5,8.5-39.7,22.4L0.1,216.3l0,0c-0.2,1.2-0.2,2.5,0.2,3.6
		c52.5,4.9,96.1-3.9,132.1-19.2L57.2,112.6z"/>
	<path class="st0" d="M277.8,216.6L277.8,216.6l-17.8-83c-5.7,1.5-36.8,10.4-76.7,38.7C139.8,203.1,80.4,227.5,0.4,220
		c0.3,0.8,0.7,1.4,1.3,2.1l0,0l25.9,30.2c84.2-43.3,109.9,6.9,161.1,6.9c50.4,0,80.8-29.6,88.1-37.6
		C277.7,220.1,278.1,218.3,277.8,216.6z"/>
	<path class="st5" d="M244.5,64c-4.2,5.6-13.2,16.2-28.4,27.5l4.3,21.2c14-13.6,25.1-21.3,29.9-24.3l-4.9-22.6
		C245.2,65.1,244.9,64.5,244.5,64z"/>
	<path class="st6" d="M66,84.3c-10.9,5-22.4,9.7-34.7,13.6l0,0c-2,0.6-4.1,1.3-6.2,2l-7.5,34.9c17.1-13.9,33.6-20.4,39.7-22.4
		l5-23.6C62.8,86.8,64.2,85.1,66,84.3L66,84.3z"/>
	<path class="st7" d="M137.5,154c0.8,0.8,2.1,0.8,2.9,0l10.5-12.3c0.8-0.8,0.7-2.1-0.1-2.8c-0.4-0.4-0.9-0.6-1.4-0.6h-20.8
		c-0.5,0-1,0.2-1.4,0.6c-0.8,0.8-0.8,2-0.1,2.8L137.5,154z"/>
	<path class="st6" d="M242.8,62.2L242.8,62.2l-74.7-49.8l0,0c-0.2,0.2-0.5,0.5-0.7,0.7l-0.1,0.1c-4.9,5-15.9,15.8-32,28.5
		c0,0,0.1,0,0.1-0.1c2-1.3,4.5-1.3,6.5-0.2l74.1,50c15.3-11.2,24.3-21.9,28.4-27.5C244.1,63.3,243.5,62.7,242.8,62.2z"/>
	<path class="st7" d="M152.5,138.1h-27.4c-0.7,0-1.4,0.3-1.9,0.8c-1,1-1,2.7-0.1,3.8l13.8,16.2c1,1,2.7,1,3.8,0l13.8-16.2
		c0.9-1.1,0.9-2.7-0.1-3.8C154,138.4,153.3,138.1,152.5,138.1z"/>
</g>
<text transform="matrix(1 0 0 1 388.0942 232.2667)" class="st7 st8 st9 st10">FERA</text>
</svg>
