<?xml version="1.0" encoding="utf-8"?>
<!-- Generator: Adobe Illustrator 21.0.2, SVG Export Plug-In . SVG Version: 6.00 Build 0)  -->
<svg version="1.1" id="Layer_1" xmlns="http://www.w3.org/2000/svg" xmlns:xlink="http://www.w3.org/1999/xlink" x="0px" y="0px"
   viewBox="0 0 1584 400" style="enable-background:new 0 0 1584 400;" xml:space="preserve">
<style type="text/css">
  .st0{fill:#56246B;}
  .st1{fill:#325BA8;}
  .st2{fill:#733F97;}
  .st3{fill:#F3AB49;}
  .st4{fill:#3286C7;}
  .st5{fill:#DA1E78;}
  .st6{fill:#E65B6B;}
  .st7{fill:#3E1B51;}
  .st8{font-family:'BrandonGrotesque-Light';}
  .st9{font-size:170.6763px;}
  .st10{letter-spacing:16;}
</style>
<g>
  <polygon class="st0" points="111.1,190.4 143.4,214.3 175.5,190.4 255.3,137.2 270.8,221.1 281,239.5 200.7,304.8 184.1,353.7
    162.2,358.9 38.3,263.8 11.2,231.5 32.7,207.9  "/>
  <g>
    <path class="st1" d="M38.3,263.8c0.1-0.1,0.2-0.1,0.3-0.1c-0.2-0.1-0.3-0.1-0.5-0.1L38.3,263.8z"/>
    <path class="st1" d="M287.9,232.5c-6.4,7.2-37,38.2-88.5,38.2c-51.1,0-76.8-50-160.8-7c12.2,3.1,47.5,14.2,74.1,44.9
      c27.9,32.2,62.1,42.7,71.4,45.1L287.9,232.5z"/>
  </g>
  <path class="st2" d="M194.1,183.8c39.9-28.4,71-37.2,76.7-38.7l-9.7-45.2c-7.6,4.9-31.8,21.8-58.1,56.3
    c-27.4,36.1-57.4,55.1-57.7,55.2C163.4,203.6,179.6,194,194.1,183.8z"/>
  <path class="st3" d="M175.5,27.4l-22.3-14.9c-2.1-1.3-4.9-1.3-6.9,0.1h-0.1L51.1,76l0,0c-1.4,0.9-2.4,2.4-2.7,4.1l0,0l-6.3,29.4
    C111.3,87,159.7,43.1,175.5,27.4L175.5,27.4z"/>
  <path class="st4" d="M144.8,388c0.1,0.1,0.2,0.2,0.3,0.3c2.6,2.6,6.8,2.6,9.4,0c0.1-0.1,0.1-0.2,0.2-0.2l29.5-34.4
    c-9.4-2.4-43.5-12.9-71.4-45.1c-27.1-31.1-63-42-74.7-44.9L144.8,388L144.8,388z"/>
  <path class="st5" d="M68,124.1l0.1-0.3c-6,2-22.5,8.5-39.7,22.4l-17.5,81.6l0,0c-0.2,1.2-0.2,2.5,0.2,3.6
    c52.5,4.9,96.1-3.9,132.1-19.2L68,124.1z"/>
  <path class="st0" d="M288.6,228.1L288.6,228.1l-17.8-83c-5.7,1.5-36.8,10.4-76.7,38.7C150.6,214.6,91.2,239,11.2,231.5
    c0.3,0.8,0.7,1.4,1.3,2.1l0,0l25.9,30.2c84.2-43.3,109.9,6.9,161.1,6.9c50.4,0,80.8-29.6,88.1-37.6
    C288.5,231.6,288.9,229.8,288.6,228.1z"/>
  <path class="st5" d="M255.3,75.5c-4.2,5.6-13.2,16.2-28.4,27.5l4.3,21.2c14-13.6,25.1-21.3,29.9-24.3l-4.9-22.6
    C256,76.6,255.7,76,255.3,75.5z"/>
  <path class="st6" d="M76.8,95.8c-10.9,5-22.4,9.7-34.7,13.6l0,0c-2,0.6-4.1,1.3-6.2,2l-7.5,34.9c17.1-13.9,33.6-20.4,39.7-22.4
    l5-23.6C73.6,98.3,75,96.6,76.8,95.8L76.8,95.8z"/>
  <path class="st7" d="M148.3,165.5c0.8,0.8,2.1,0.8,2.9,0l10.5-12.3c0.8-0.8,0.7-2.1-0.1-2.8c-0.4-0.4-0.9-0.6-1.4-0.6h-20.8
    c-0.5,0-1,0.2-1.4,0.6c-0.8,0.8-0.8,2-0.1,2.8L148.3,165.5z"/>
  <path class="st6" d="M253.6,73.7L253.6,73.7l-74.7-49.8l0,0c-0.2,0.2-0.5,0.5-0.7,0.7l-0.1,0.1c-4.9,5-15.9,15.8-32,28.5
    c0,0,0.1,0,0.1-0.1c2-1.3,4.5-1.3,6.5-0.2l74.1,50c15.3-11.2,24.3-21.9,28.4-27.5C254.9,74.8,254.3,74.2,253.6,73.7z"/>
  <path class="st7" d="M163.3,149.6h-27.4c-0.7,0-1.4,0.3-1.9,0.8c-1,1-1,2.7-0.1,3.8l13.8,16.2c1,1,2.7,1,3.8,0l13.8-16.2
    c0.9-1.1,0.9-2.7-0.1-3.8C164.8,149.9,164.1,149.6,163.3,149.6z"/>
</g>
<text transform="matrix(1 0 0 1 398.8628 243.8038)" class="st7 st8 st9 st10">STYLE GUIDE</text>
</svg>